<mxfile host="app.diagrams.net" modified="2022-02-08T18:57:34.010Z" agent="5.0 (Windows NT 10.0; Win64; x64) AppleWebKit/537.36 (KHTML, like Gecko) Chrome/97.0.4692.99 Safari/537.36" etag="zDoZZEGvnIyX1tFdTGI8" version="16.5.3" type="github">
  <diagram id="TzT6m59Ix_mjKr-WDxl3" name="Page-1">
    <mxGraphModel dx="1422" dy="754" grid="1" gridSize="10" guides="1" tooltips="1" connect="1" arrows="1" fold="1" page="1" pageScale="1" pageWidth="1920" pageHeight="1200" math="0" shadow="0">
      <root>
        <mxCell id="0" />
        <mxCell id="1" parent="0" />
        <mxCell id="9KuQV6Mnis-wEZ59xsWF-11" value="&lt;p&gt;Edge Server&lt;/p&gt;" style="rounded=1;whiteSpace=wrap;html=1;sketch=0;shadow=0;gradientColor=none;fillColor=default;glass=0;verticalAlign=top;" vertex="1" parent="1">
          <mxGeometry x="420" y="90" width="190" height="50" as="geometry" />
        </mxCell>
        <mxCell id="9KuQV6Mnis-wEZ59xsWF-12" value="子節點" style="rounded=1;whiteSpace=wrap;html=1;shadow=0;glass=0;sketch=0;fillColor=default;gradientColor=none;" vertex="1" parent="1">
          <mxGeometry x="455" y="290" width="120" height="30" as="geometry" />
        </mxCell>
        <mxCell id="9KuQV6Mnis-wEZ59xsWF-15" value="" style="endArrow=classic;html=1;rounded=0;entryX=0.5;entryY=1;entryDx=0;entryDy=0;exitX=0.5;exitY=0;exitDx=0;exitDy=0;" edge="1" parent="1" source="9KuQV6Mnis-wEZ59xsWF-12" target="9KuQV6Mnis-wEZ59xsWF-11">
          <mxGeometry width="50" height="50" relative="1" as="geometry">
            <mxPoint x="340" y="170" as="sourcePoint" />
            <mxPoint x="460" y="220" as="targetPoint" />
            <Array as="points" />
          </mxGeometry>
        </mxCell>
        <mxCell id="9KuQV6Mnis-wEZ59xsWF-17" value="" style="endArrow=classic;html=1;rounded=0;exitX=1;exitY=0.5;exitDx=0;exitDy=0;entryX=1;entryY=0.5;entryDx=0;entryDy=0;" edge="1" parent="1" source="9KuQV6Mnis-wEZ59xsWF-12" target="9KuQV6Mnis-wEZ59xsWF-11">
          <mxGeometry width="50" height="50" relative="1" as="geometry">
            <mxPoint x="700" y="400" as="sourcePoint" />
            <mxPoint x="740" y="305" as="targetPoint" />
            <Array as="points">
              <mxPoint x="800" y="305" />
              <mxPoint x="800" y="210" />
              <mxPoint x="800" y="115" />
            </Array>
          </mxGeometry>
        </mxCell>
        <mxCell id="9KuQV6Mnis-wEZ59xsWF-19" value="" style="endArrow=classic;html=1;rounded=0;exitX=0;exitY=0.5;exitDx=0;exitDy=0;fontColor=#9933FF;entryX=0;entryY=0.5;entryDx=0;entryDy=0;labelBackgroundColor=#1A1A1A;" edge="1" parent="1" source="9KuQV6Mnis-wEZ59xsWF-11" target="9KuQV6Mnis-wEZ59xsWF-12">
          <mxGeometry width="50" height="50" relative="1" as="geometry">
            <mxPoint x="700" y="400" as="sourcePoint" />
            <mxPoint x="240" y="300" as="targetPoint" />
            <Array as="points">
              <mxPoint x="240" y="115" />
              <mxPoint x="240" y="305" />
            </Array>
          </mxGeometry>
        </mxCell>
        <mxCell id="9KuQV6Mnis-wEZ59xsWF-20" value="Time" style="rounded=1;whiteSpace=wrap;html=1;shadow=0;glass=0;sketch=0;fillColor=default;gradientColor=none;" vertex="1" parent="1">
          <mxGeometry x="520" y="210" width="60" height="20" as="geometry" />
        </mxCell>
        <mxCell id="9KuQV6Mnis-wEZ59xsWF-21" value="&lt;font color=&quot;#1a1a1a&quot;&gt;子結點資訊&lt;br&gt;&lt;/font&gt;" style="rounded=1;whiteSpace=wrap;html=1;shadow=0;glass=0;sketch=0;fontColor=#9933FF;fillColor=default;gradientColor=none;" vertex="1" parent="1">
          <mxGeometry x="720" y="310" width="80" height="30" as="geometry" />
        </mxCell>
        <mxCell id="9KuQV6Mnis-wEZ59xsWF-24" value="schedule List" style="rounded=1;whiteSpace=wrap;html=1;shadow=0;glass=0;sketch=0;fontColor=#1A1A1A;fillColor=default;gradientColor=none;" vertex="1" parent="1">
          <mxGeometry x="240" y="310" width="80" height="30" as="geometry" />
        </mxCell>
      </root>
    </mxGraphModel>
  </diagram>
</mxfile>
